<svg version="1" xmlns="http://www.w3.org/2000/svg" width="988" height="988" viewBox="0 0 741.000000 741.000000"><path d="M0 370.5V741h741V0H0v370.5zm293.5-86.9c44.6 48.2 81.1 87.9 81.3 88.3.1.5-36.3 40.2-80.9 88.4L212.7 548H85.6l3.6-3.8c19-19.9 158.8-171.7 158.6-172.3-.3-.7-24.1-26.4-117.5-127.1-24.4-26.2-44.3-47.9-44.3-48.2 0-.4 28.5-.6 63.3-.6h63.2l81 87.6zM612 439.4c19.6 6.5 33.9 21 39 39.6 2.1 7.5 1.7 21.5-.8 29.5-5.9 19.1-22.4 34.6-41 38.4-7.4 1.5-186 1.5-193.4 0-24.9-5.1-43.3-28.3-43.2-54.4.1-15.4 4.8-26.9 15.9-38.1 9.5-9.7 20-14.9 33-16.5 3.3-.3 46.3-.6 95.5-.5 83.9.1 89.8.3 95 2z"/></svg>